<svg xmlns="http://www.w3.org/2000/svg" width="21.517" height="21.517" viewBox="0 0 21.517 21.517"><defs><style>.a{fill:#004f6c;}</style></defs><g transform="translate(0)"><g transform="translate(0 0)"><g transform="translate(0 0)"><path class="a" d="M21.1,17.109l-2.385-1.59-2.121-1.413a.939.939,0,0,0-1.261.2L14.02,16a.935.935,0,0,1-1.193.247A15.277,15.277,0,0,1,8.56,12.957,15.387,15.387,0,0,1,5.273,8.691.934.934,0,0,1,5.52,7.5L7.207,6.186a.939.939,0,0,0,.2-1.261L6.042,2.869,4.408.418A.939.939,0,0,0,3.143.134L1.259,1.264A2.3,2.3,0,0,0,.214,2.617C-.3,4.5-.405,8.64,6.236,15.281S17.021,21.819,18.9,21.3a2.3,2.3,0,0,0,1.353-1.045l1.13-1.884A.939.939,0,0,0,21.1,17.109Z" transform="translate(0 0)"/><path class="a" d="M282.853,62.534a6.314,6.314,0,0,1,6.307,6.307.371.371,0,0,0,.742,0,7.056,7.056,0,0,0-7.048-7.049.371.371,0,1,0,0,.742Z" transform="translate(-270.611 -59.195)"/><path class="a" d="M282.852,115.5a4.086,4.086,0,0,1,4.081,4.081.371.371,0,1,0,.742,0,4.828,4.828,0,0,0-4.823-4.823.371.371,0,1,0,0,.742Z" transform="translate(-270.61 -109.933)"/><path class="a" d="M282.853,168.465a1.857,1.857,0,0,1,1.855,1.855.371.371,0,0,0,.742,0,2.6,2.6,0,0,0-2.6-2.6.371.371,0,1,0,0,.742Z" transform="translate(-270.611 -160.675)"/></g></g></g></svg>