<svg xmlns="http://www.w3.org/2000/svg" width="26.583" height="29" viewBox="0 0 26.583 29"><defs><style>.a{fill:#004f6c;}</style></defs><g transform="translate(0 0)"><path class="a" d="M322.522,19.927A3.927,3.927,0,1,1,318.6,16,3.927,3.927,0,0,1,322.522,19.927Zm0,0" transform="translate(-296.845 -15.094)"/><path class="a" d="M303.5,9.667a4.833,4.833,0,1,1,4.833-4.833A4.838,4.838,0,0,1,303.5,9.667Zm0-7.854a3.021,3.021,0,1,0,3.021,3.021A3.024,3.024,0,0,0,303.5,1.813Zm0,0" transform="translate(-281.751)"/><path class="a" d="M322.522,361.259a3.927,3.927,0,1,1-3.927-3.927A3.927,3.927,0,0,1,322.522,361.259Zm0,0" transform="translate(-296.845 -337.093)"/><path class="a" d="M303.5,351a4.833,4.833,0,1,1,4.833-4.833A4.838,4.838,0,0,1,303.5,351Zm0-7.854a3.021,3.021,0,1,0,3.021,3.021A3.024,3.024,0,0,0,303.5,343.145Zm0,0" transform="translate(-281.751 -321.999)"/><path class="a" d="M23.854,190.6a3.927,3.927,0,1,1-3.927-3.927A3.927,3.927,0,0,1,23.854,190.6Zm0,0" transform="translate(-15.094 -176.095)"/><path class="a" d="M4.833,180.334A4.833,4.833,0,1,1,9.667,175.5a4.838,4.838,0,0,1-4.833,4.833Zm0-7.854A3.021,3.021,0,1,0,7.854,175.5a3.024,3.024,0,0,0-3.021-3.021Zm0,0" transform="translate(0 -161.001)"/><path class="a" d="M115.558,99.025a1.208,1.208,0,0,1-.6-2.259l11.212-6.392a1.208,1.208,0,1,1,1.2,2.1l-11.212,6.392a1.2,1.2,0,0,1-.6.158Zm0,0" transform="translate(-107.872 -85.105)"/><path class="a" d="M126.79,275.029a1.2,1.2,0,0,1-.6-.158l-11.212-6.392a1.208,1.208,0,0,1,1.2-2.1l11.212,6.392a1.208,1.208,0,0,1-.6,2.259Zm0,0" transform="translate(-107.893 -251.14)"/></g></svg>