<svg xmlns="http://www.w3.org/2000/svg" width="50.038" height="56.365" viewBox="0 0 50.038 56.365"><defs><style>.a{fill:#344a5e;}.b{fill:#e8eae9;}.c{fill:#f3705a;}.d{fill:#ffd15c;}.e{fill:#f7b64c;}.f{fill:#415a6b;}.g{fill:#8ad7f8;}</style></defs><g transform="translate(-28.74 -0.001)"><g transform="translate(50.81 31.708)"><path class="a" d="M398.022,313.192l-5.166-23.014h-2.348l5.284,23.484a1.078,1.078,0,0,0,.47.7,1.058,1.058,0,0,0,.587.117h.235A1.031,1.031,0,0,0,398.022,313.192Z" transform="translate(-372.754 -289.943)"/><path class="a" d="M234.424,288.162l-5.166,23.131a1.081,1.081,0,0,0,.822,1.292h.235a.88.88,0,0,0,.587-.117.966.966,0,0,0,.47-.7l5.284-23.718h-2.231Z" transform="translate(-229.235 -288.044)"/><path class="a" d="M332.309,290.178l-.47,21.018a1.158,1.158,0,0,0,1.057,1.174h0a1.249,1.249,0,0,0,1.174-1.057l.47-21.135Z" transform="translate(-320.544 -289.943)"/></g><path class="b" d="M225.878,29.912l26.184.7-.7,29.589-26.184-.822Z" transform="translate(-174.81 -26.619)"/><g transform="translate(48.954 0.945)"><path class="c" d="M248.842,10.926a1.068,1.068,0,0,1-.47.939,1.068,1.068,0,0,1-.939.47h0l-26.3-.822a1.068,1.068,0,0,1-.939-.47,1.5,1.5,0,0,1,1.057-2.466l26.184.822A1.621,1.621,0,0,1,248.842,10.926Z" transform="translate(-219.018 -8.578)"/><path class="c" d="M241.375,293.592a1.068,1.068,0,0,1-.47.939,1.333,1.333,0,0,1-.939.352h0l-26.3-.7a1.068,1.068,0,0,1-.939-.47,1.5,1.5,0,0,1,1.057-2.466l26.184.822A1.621,1.621,0,0,1,241.375,293.592Z" transform="translate(-212.373 -260.128)"/></g><g transform="translate(36.508 0.345)"><path class="d" d="M152.14,37.251c-.117.47-.47.822-.7.822-.235-.117-.352-.47-.235-.939s.47-.822.7-.822C152.257,36.312,152.375,36.782,152.14,37.251Z" transform="translate(-145.447 -32.659)"/><path class="d" d="M108.338,36.3c.117.47.47.822.7.822.352-.117.352-.587.235-1.057s-.47-.822-.7-.822C108.221,35.362,108.221,35.832,108.338,36.3Z" transform="translate(-107.281 -31.71)"/><path class="d" d="M100.127,11.595l1.292-1.174a15.256,15.256,0,0,1-.352-1.761c0-.352-.822-2.466-.47-3.523s.235-1.879,2-2a2.713,2.713,0,0,1,2.7,1.174c.587.7.47,2.818.47,3.17a9.929,9.929,0,0,1-.822,3.053v.587l1.292,2.231v2.231l-1.292.117L99.305,14.53Z" transform="translate(-99.305 -3.128)"/></g><path class="e" d="M123.32,72.314,121.911,70.2v-.587a2.322,2.322,0,0,1-3.405-.235s1.057,2.7,4.932,3.405Z" transform="translate(-79.885 -61.741)"/><path class="d" d="M241.173,143.555a11.445,11.445,0,0,0,1.292-.587c.235-.117.352-.352.7-.47s.822-.47,1.057-.47.587-.117.7-.117a11.081,11.081,0,0,1,1.057.352s0,.47-.352.47c-.117,0-1.057-.235-1.174-.235s.352.117.352.117.939.117,1.057.117h.117c.117-.117.352,0,.352.235h0c0,.117,0,.117-.117.235a.41.41,0,0,0-.235.117h-.235c-.117,0,0,.235,0,.352a.115.115,0,0,1-.117.117H245.4a.58.58,0,0,1-.117.352c-.117.117-.117,0-.117,0s.117.352-.47.587a6.522,6.522,0,0,1-2,.235c-.235-.117-1.292.587-1.292.587Z" transform="translate(-189.049 -126.289)"/><path class="a" d="M98.62,498.264a.61.61,0,0,0,.47-.235,1.255,1.255,0,0,0,0-.939c-.235-.587-.235-.352-.235-.352l-3.17.117a1.746,1.746,0,0,0,0,.822.786.786,0,0,0,.822.47C97.094,498.146,98.151,498.264,98.62,498.264Z" transform="translate(-59.529 -442.015)"/><path class="f" d="M94.881,472.452s-.117.822-.235,1.409a2.5,2.5,0,0,0,.117,1.409c.235.235,1.174.117,1.761.117a4.67,4.67,0,0,0,1.292,0c.352,0,.235-1.057,0-1.644a4.629,4.629,0,0,1-.587-1.644v-.587Z" transform="translate(-58.609 -419.608)"/><path class="a" d="M150.932,491.171l.352.235s.117.117,0,.352a1.186,1.186,0,0,0-.587.235,7.772,7.772,0,0,1-1.761.117,1.831,1.831,0,0,1-1.174-.7,1.719,1.719,0,0,0-.587-.352v.235h-1.409a1.229,1.229,0,0,1,.235-1.174l.47-.47C146.587,489.644,150.932,491.171,150.932,491.171Z" transform="translate(-104.091 -435.744)"/><path class="f" d="M148.818,475.158a3.585,3.585,0,0,1,.822.939c.235.47.235,1.057.7,1.292s1.057.7,1.057.939a3.552,3.552,0,0,0-1.174.235,2.068,2.068,0,0,1-1.879-.117c-.352-.235-.587-.7-1.174-.822-.587-.235-1.174,0-1.292-.235a3.515,3.515,0,0,1,.352-2.114C146.7,474.923,148.818,475.158,148.818,475.158Z" transform="translate(-104.209 -422.784)"/><path class="a" d="M173.376,104.333l.939-.822a12.5,12.5,0,0,1,.352,2.466c0,1.057-.235,1.526,0,1.879s1.057,1.292,1.057,1.879.117.7.47.587,1.644-.352,2-.47c.235-.117,2.7-.822,2.7-.822s-.117,2.466,1.174,2.818c0,0-3.757,1.292-4.462,1.409s-2.114.587-2.466.587a1.86,1.86,0,0,1-1.409-.587,4.289,4.289,0,0,1-.822-1.644C173.023,111.261,173.376,104.333,173.376,104.333Z" transform="translate(-128.296 -92.116)"/><path class="g" d="M98.267,104.2a11.041,11.041,0,0,1-6.106,1.409c-3.17-.352-3.523-.352-3.523-.47s1.644-11.037,2.231-15.382h.587a2.431,2.431,0,0,0,4.462-.117h.235l1.409,9.393Z" transform="translate(-53.306 -79.776)"/><path class="a" d="M79.853,222.733c4.11.939,7.75.939,10.215-.822a40.6,40.6,0,0,1,1.292,4.344c0,.587-.235.47-.235,1.409s0,7.28-.117,8.454a17.988,17.988,0,0,0-.235,3.17,15.5,15.5,0,0,1,.47,3.405,56.818,56.818,0,0,1-.822,6.341,3.3,3.3,0,0,0,.117,1.292s-1.174-.352-1.761.235c-.587.47-1.526.587-1.879,0a27.718,27.718,0,0,1,.235-3.757,50.91,50.91,0,0,0,0-5.988,26.567,26.567,0,0,0-.117-2.935c-.117-1.174-.47-3.875-.587-4.227s-.7-2.348-.7-2.348a17.3,17.3,0,0,1-.47,2.7c-.352,1.292-.939,3.288-1.057,3.64a37.328,37.328,0,0,0-.47,4.462,31.915,31.915,0,0,0,.47,3.523c.117.822.117,3.757.117,4.227v.7a1.474,1.474,0,0,0-1.174-.47,2.512,2.512,0,0,0-1.526.7s-.939-1.057-.939-1.644-.47-1.292-.587-2.466a70.374,70.374,0,0,1,0-7.045,59.388,59.388,0,0,0-.47-7.4C79.5,230.13,79.148,224.964,79.853,222.733Z" transform="translate(-45.106 -197.482)"/><path class="f" d="M149.439,76.845a6.256,6.256,0,0,1,.7,2.583c.117,1.292.47,6.458.7,8.1.235,1.761.939,5.988.939,7.163.117,1.174-.117,2.114.7,2.466a1.615,1.615,0,0,0,1.409,0,12.337,12.337,0,0,1-.939-2.818,46.687,46.687,0,0,0-.7-4.7,55.417,55.417,0,0,1,.822-5.754,40.469,40.469,0,0,0,.352-4.11,23.3,23.3,0,0,1-3.288-2.231A2.753,2.753,0,0,0,149.439,76.845Z" transform="translate(-107.413 -68.385)"/><g transform="translate(28.74 9.986)"><path class="a" d="M33.807,101.868c-.47.117-.822.822-.939,1.526s-.235,1.526-.235,1.526-1.879-2-2.466-2.583a8.313,8.313,0,0,1-1.409-2.348,5.28,5.28,0,0,1,.7-2.466c.352-.587,1.526-3.17,2.114-4.462s1.174-2.348,1.174-2.348a12.614,12.614,0,0,1,.7,2.818,20.7,20.7,0,0,1,0,2.7,7.829,7.829,0,0,0-.352.822,11.814,11.814,0,0,1-1.292,2,1.851,1.851,0,0,0,.117.47,1.579,1.579,0,0,0,.7.822c.117.117.235.352.47.47A6.663,6.663,0,0,1,33.807,101.868Z" transform="translate(-28.74 -90.713)"/><path class="a" d="M265.521,103.952l-6.928,6.693a.332.332,0,0,0,.47.47l6.693-6.81C265.991,104.07,265.639,103.717,265.521,103.952Z" transform="translate(-233.213 -102.426)"/></g><path class="d" d="M262.977,152.324h.117a3.164,3.164,0,0,0,.939-.822,2.361,2.361,0,0,0,.47-.939,1.489,1.489,0,0,1-.7-.117h-.235c-.117,0-.117,0-.117.117v.235c0,.117.117.117.117.235h-.235a.41.41,0,0,0-.235.117v.352h-.47a.431.431,0,0,0-.117.352A.916.916,0,0,0,262.977,152.324Z" transform="translate(-208.034 -133.883)"/><g transform="translate(32.046 0.001)"><path class="f" d="M107.329,4.7a8.278,8.278,0,0,0,0-1.761c-.117-.587.7-1.644,1.292-1.292a1.565,1.565,0,0,0,1.879-.117c.352-.47,1.409.352,1.409,1.174V4.585h.117a4.116,4.116,0,0,0,.352-1.879,2.843,2.843,0,0,0-2.935-2.7,3,3,0,0,0-2.818,2.935,2.589,2.589,0,0,0,.7,1.761Z" transform="translate(-101.34 -0.001)"/><path class="f" d="M65.23,69.378a8.692,8.692,0,0,0-.352,2.818c.117,1.292.117,7.4.117,8.1a63.623,63.623,0,0,1-1.174,7.632c-.352.822-1.174,2.818-2.466,2.818a5.622,5.622,0,0,1-2.583-.822s1.526-9.393,1.292-11.39a16.062,16.062,0,0,0,.117-3.757c-.235-1.292-.7-2.818-.7-2.818a26.724,26.724,0,0,1,3.64-1.174C64.056,70.669,64.408,69.73,65.23,69.378Z" transform="translate(-58.772 -61.741)"/></g></g></svg>