<svg xmlns="http://www.w3.org/2000/svg" width="21.171" height="21.171" viewBox="0 0 21.171 21.171"><defs><style>.a{fill:#004f6c;}</style></defs><path class="a" d="M15.329,0H5.842A5.849,5.849,0,0,0,0,5.843v9.486a5.849,5.849,0,0,0,5.842,5.843h9.486a5.849,5.849,0,0,0,5.843-5.843V5.843A5.849,5.849,0,0,0,15.329,0Zm3.964,15.329a3.969,3.969,0,0,1-3.964,3.964H5.842a3.968,3.968,0,0,1-3.964-3.964V5.843A3.969,3.969,0,0,1,5.842,1.878h9.486a3.969,3.969,0,0,1,3.964,3.964v9.486Z" transform="translate(0 0)"/><path class="a" d="M46.423,40.97a5.455,5.455,0,1,0,5.455,5.455A5.461,5.461,0,0,0,46.423,40.97Zm0,9.032A3.577,3.577,0,1,1,50,46.425,3.581,3.581,0,0,1,46.423,50Z" transform="translate(-35.838 -35.839)"/><path class="a" d="M120.3,28.251a1.377,1.377,0,1,0,.974.4A1.383,1.383,0,0,0,120.3,28.251Z" transform="translate(-104.029 -24.713)"/></svg>