<svg xmlns="http://www.w3.org/2000/svg" width="21.481" height="15.306" viewBox="0 0 21.481 15.306"><defs><style>.a{fill:#004f6c;}</style></defs><g transform="translate(0 -33.085)"><path class="a" d="M166.468,48.879c0-.025.017-.048.016-.073l-6.555,6.316,6.547,6.115c0-.044-.008-.088-.008-.132V48.879Z" transform="translate(-145.003 -14.254)"/><path class="a" d="M23.907,126.9l-2.676,2.575a.7.7,0,0,1-.962.008L17.6,127l-6.59,6.352a1.519,1.519,0,0,0,.512.1H29.97a1.517,1.517,0,0,0,.736-.2Z" transform="translate(-9.982 -85.061)"/><path class="a" d="M16.314,42.947l10-9.637a1.516,1.516,0,0,0-.773-.225H7.1a1.52,1.52,0,0,0-.968.361Z" transform="translate(-5.558)"/><path class="a" d="M0,52.1V64.091a1.522,1.522,0,0,0,.066.4l6.508-6.267Z" transform="translate(0 -17.24)"/></g></svg>